<mxfile host="app.diagrams.net" modified="2023-11-10T15:32:42.064Z" agent="Mozilla/5.0 (Windows NT 10.0; Win64; x64) AppleWebKit/537.36 (KHTML, like Gecko) Chrome/119.0.0.0 Safari/537.36" etag="YmHNqyG9KMpqaImSalgw" version="22.1.0" type="github">
  <diagram name="Página-1" id="Ag4KgtUrRzJSa6hPJ-zC">
    <mxGraphModel dx="2261" dy="738" grid="1" gridSize="10" guides="1" tooltips="1" connect="1" arrows="1" fold="1" page="1" pageScale="1" pageWidth="827" pageHeight="1169" math="0" shadow="0">
      <root>
        <mxCell id="0" />
        <mxCell id="1" parent="0" />
        <mxCell id="kN6EqPMscIgF01qb4OFp-1" value="Overview da Aplicação&lt;br&gt;&lt;br&gt;Carteira digital, onde podemos&amp;nbsp; inserir nosso gastos e ter controles financeiro:&lt;br&gt;&lt;br&gt;MVP: Carteira com a funcionalidade de inserir gastos e somá-los, guardar no banco de dados para&amp;nbsp; trazer um histórico&lt;br&gt;&lt;br&gt;Evolução:&lt;br&gt;Funcionalidade:&lt;br&gt;Ter como adicionar saldo positivo na carteira em diferentes métodos de pagamento.&lt;br&gt;Poder fazer um planejamento de gasto máximo&lt;br&gt;Exibir porcentagem de gasto no mês&lt;br&gt;Trazer gráfico com os maiores gastos por grupo (lazer, alimentação...)" style="text;html=1;strokeColor=none;fillColor=none;align=left;verticalAlign=middle;whiteSpace=wrap;rounded=0;" vertex="1" parent="1">
          <mxGeometry x="-290" y="20" width="330" height="280" as="geometry" />
        </mxCell>
      </root>
    </mxGraphModel>
  </diagram>
</mxfile>
